HIERARCHY
ROOT RootJoint
{
    OFFSET   0.000000   0.000000   0.000000
    CHANNELS 6 Xposition Yposition Zposition Xrotation Yrotation Zrotation
    JOINT pelvis_lowerback
    {
        OFFSET   0.000000   0.093605   0.000000
        CHANNELS 3 Xrotation Yrotation Zrotation
        JOINT lowerback_torso
        {
            OFFSET   0.000000   0.100000   0.000000
            CHANNELS 3 Xrotation Yrotation Zrotation
            JOINT torso_head
            {
                OFFSET   0.000000   0.282350   0.000000
                CHANNELS 3 Xrotation Yrotation Zrotation
                End Site
                {
                    OFFSET   0.000000   0.192650   0.000000
                }
            }
            JOINT rTorso_Clavicle
            {
                OFFSET  -0.001000   0.157500   0.000000
                CHANNELS 3 Xrotation Yrotation Zrotation
                JOINT rShoulder
                {
                    OFFSET  -0.117647   0.000000   0.000000
                    CHANNELS 3 Xrotation Yrotation Zrotation
                    JOINT rElbow
                    {
                        OFFSET  -0.245000   0.000000   0.000000
                        CHANNELS 3 Xrotation Yrotation Zrotation
                        JOINT rWrist
                        {
                            OFFSET  -0.240000   0.000000   0.000000
                            CHANNELS 3 Xrotation Yrotation Zrotation
                            End Site
                            {
                                OFFSET  -0.116353  -0.002500   0.000000
                            }
                        }
                    }
                }
            }
            JOINT lTorso_Clavicle
            {
                OFFSET   0.001000   0.157500   0.000000
                CHANNELS 3 Xrotation Yrotation Zrotation
                JOINT lShoulder
                {
                    OFFSET   0.117647   0.000000   0.000000
                    CHANNELS 3 Xrotation Yrotation Zrotation
                    JOINT lElbow
                    {
                        OFFSET   0.245000   0.000000   0.000000
                        CHANNELS 3 Xrotation Yrotation Zrotation
                        JOINT lWrist
                        {
                            OFFSET   0.240000   0.000000   0.000000
                            CHANNELS 3 Xrotation Yrotation Zrotation
                            End Site
                            {
                                OFFSET   0.116353  -0.002500   0.000000
                            }
                        }
                    }
                }
            }
        }
    }
    JOINT rHip
    {
        OFFSET  -0.100000  -0.051395   0.000000
        CHANNELS 3 Xrotation Yrotation Zrotation
        JOINT rKnee
        {
            OFFSET   0.000000  -0.410000   0.000000
            CHANNELS 3 Xrotation Yrotation Zrotation
            JOINT rAnkle
            {
                OFFSET   0.000000  -0.390000   0.000000
                CHANNELS 3 Xrotation Yrotation Zrotation
                JOINT rToeJoint
                {
                    OFFSET   0.000000  -0.050000   0.130000
                    CHANNELS 3 Xrotation Yrotation Zrotation
                    End Site
                    {
                        OFFSET  -0.010000   0.002000   0.060000
                    }
                }
            }
        }
    }
    JOINT lHip
    {
        OFFSET   0.100000  -0.051395   0.000000
        CHANNELS 3 Xrotation Yrotation Zrotation
        JOINT lKnee
        {
            OFFSET   0.000000  -0.410000   0.000000
            CHANNELS 3 Xrotation Yrotation Zrotation
            JOINT lAnkle
            {
                OFFSET   0.000000  -0.390000   0.000000
                CHANNELS 3 Xrotation Yrotation Zrotation
                JOINT lToeJoint
                {
                    OFFSET   0.000000  -0.050000   0.130000
                    CHANNELS 3 Xrotation Yrotation Zrotation
                    End Site
                    {
                        OFFSET   0.010000   0.002000   0.060000
                    }
                }
            }
        }
    }
}
MOTION
Frames: 11
Frame Time:   0.008333
 -1.436547   0.889697   4.029554  -1.262604 -27.372829   3.163622   4.828135   3.191120  -2.116819  -3.275390   2.326993   0.820582  -0.767618   2.862372   1.960477  -2.273536  11.196423  -7.794824  -8.963543  37.394509  22.341975 179.998669  81.379276 -179.998775 -10.422825   9.584112   3.270532  -4.883752  -3.040380   9.937147 -36.975909  10.488048 -13.122496  -0.000075 -52.365780   0.000157 -17.545293  -7.989462  13.773854   8.783703  -2.696831  -5.583949  30.891504   0.001863   0.002887 -20.305993  -4.298742   3.229337   2.294385  -0.000035   0.000050 -17.707601   2.993767  -1.897241  27.153243  -0.001944  -0.003076  -7.721379  10.479788   0.434476  -0.507643  -0.000005  -0.000001
 -1.435780   0.888774   4.024895  -1.223969 -27.688570   3.148951   4.895869   3.273870  -2.104009  -3.355789   2.343928   0.758525  -0.797396   2.893074   1.925132  -2.322376  11.321542  -7.827631  -8.953280  37.513021  22.393218 179.998446  81.284878 -179.998565 -10.409905   9.592845   3.212650  -4.946536  -2.961497  10.029676 -36.960460  10.536259 -13.033224  -0.000143 -52.508347   0.000050 -17.446185  -8.056042  13.789621   8.971264  -2.562659  -5.570616  30.163939   0.002096   0.003158 -20.289296  -3.974599   3.112990   2.420553   0.000015   0.000251 -18.194923   3.044166  -1.694733  27.470659  -0.002019  -0.003017  -7.543691  10.703389   0.220656  -0.526173  -0.000016  -0.000001
 -1.435096   0.887974   4.020118  -1.209771 -28.015405   3.088856   4.979699   3.355315  -2.070784  -3.422406   2.368004   0.709746  -0.823633   2.920967   1.892669  -2.367101  11.442949  -7.858117  -8.944011  37.628247  22.441935 179.998270  81.193023 -179.998390 -10.399118   9.600337   3.163517  -5.008403  -2.876280  10.114160 -36.947762  10.588045 -12.944505  -0.000171 -52.642110  -0.000016 -17.347435  -8.134624  13.825453   9.101549  -2.428232  -5.489424  29.409594   0.002597   0.003415 -20.468024  -3.640266   3.043705   0.192640   0.001356  -0.003775 -18.635870   3.087058  -1.446124  27.731411  -0.002020  -0.002863  -7.338053  10.925239   0.026016  -0.537457  -0.000017  -0.000000
 -1.434480   0.887221   4.015314  -1.222762 -28.333818   3.009256   5.065706   3.430382  -2.037663  -3.474272   2.391739   0.667205  -0.844799   2.946743   1.862812  -2.407662  11.555774  -7.888215  -8.934372  37.736121  22.487244 179.998173  81.106710 -179.998296 -10.390027   9.606840   3.121348  -5.066650  -2.793770  10.196879 -36.936271  10.637422 -12.858952  -0.000186 -52.766235  -0.000070 -17.252932  -8.208030  13.864545   9.208485  -2.308308  -5.391019  28.724176   0.002995   0.003576 -20.638395  -3.336138   2.976106  -1.804035   0.002633  -0.005744 -19.033272   3.120538  -1.186840  27.954284  -0.001969  -0.002658  -7.117009  11.138756  -0.150586  -0.543148  -0.000015  -0.000000
 -1.433925   0.886483   4.010515  -1.258241 -28.639500   2.919796   5.148137   3.498991  -2.008108  -3.518040   2.413087   0.627500  -0.862665   2.970755   1.834740  -2.444715  11.659747  -7.917540  -8.924366  37.836313  22.529027 179.998158  81.026061 -179.998290 -10.382295   9.612543   3.084790  -5.121398  -2.716082  10.277503 -36.925996  10.682953 -12.777279  -0.000202 -52.881945  -0.000127 -17.162530  -8.276627  13.902366   9.303720  -2.197581  -5.285014  28.089676   0.003270   0.003628 -20.800243  -3.050959   2.914953  -3.664731   0.003773  -0.006718 -19.397142   3.146739  -0.926149  28.153451  -0.001892  -0.002436  -6.887973  11.341228  -0.313035  -0.544607  -0.000012  -0.000000
 -1.433424   0.885740   4.005737  -1.313728 -28.931811   2.825402   5.224727   3.561536  -1.982949  -3.557483   2.431738   0.589000  -0.878442   2.993165   1.808108  -2.478935  11.755572  -7.945911  -8.914372  37.929241  22.567456 179.998215  80.950802 -179.998363 -10.375542   9.617720   3.052095  -5.172828  -2.643628  10.354942 -36.916771  10.724753 -12.700025  -0.000222 -52.990009  -0.000192 -17.075830  -8.341965  13.938218   9.391713  -2.093795  -5.176164  27.499580   0.003440   0.003586 -20.956800  -2.782632   2.860371  -5.431500   0.004756  -0.007091 -19.732646   3.167406  -0.668749  28.336419  -0.001805  -0.002216  -6.654651  11.532360  -0.465352  -0.543021  -0.000010  -0.000000
 -1.432955   0.884990   4.001013  -1.386679 -29.212701   2.729646   5.292112   3.619095  -1.959148  -3.595230   2.448200   0.551009  -0.892637   3.014125   1.782605  -2.510426  11.843490  -7.973259  -8.904165  38.015286  22.602627 179.998344  80.880495 -179.998512 -10.369812   9.622217   3.023940  -5.220867  -2.575406  10.426596 -36.907883  10.764297 -12.628249  -0.000249 -53.090910  -0.000265 -16.992694  -8.404290  13.971182   9.479123  -1.999687  -5.065289  26.961023   0.003529   0.003476 -21.119234  -2.521373   2.739296  -7.226237   0.004604  -0.007326 -20.041241   3.184843  -0.419535  28.504971  -0.001710  -0.002006  -6.419740  11.714030  -0.606682  -0.538815  -0.000008  -0.000000
 -1.432488   0.884264   3.996198  -1.441277 -29.487481   2.614315   5.392337   3.643291  -1.910346  -3.669463   2.431915   0.528968  -0.913480   3.073172   1.725820  -2.559572  11.956619  -8.031316  -8.850111  38.173315  22.600367 179.998189  80.809301 -179.998389 -10.356581   9.635061   2.949863  -5.299068  -2.418452  10.474718 -36.891687  10.822721 -12.545249  -0.000348 -53.237908  -0.000405 -16.897911  -8.464412  13.987263   9.532629  -1.883514  -4.910697  26.432170   0.003604   0.003265 -21.240279  -2.257135   2.501039  -8.962418   0.002911  -0.007984 -20.367999   3.147174  -0.142559  28.658312  -0.001636  -0.001860  -6.150963  11.858272  -0.851665  -0.554898  -0.000016   0.000010
 -1.432029   0.883553   3.991362  -1.498344 -29.772292   2.500967   5.497998   3.671331  -1.866933  -3.735180   2.425659   0.506727  -0.930723   3.127455   1.672632  -2.608210  12.067385  -8.092877  -8.800695  38.326314  22.594251 179.998060  80.739947 -179.998283 -10.346066   9.645262   2.891013  -5.375323  -2.256863  10.519813 -36.878013  10.885587 -12.460390  -0.000409 -53.375394  -0.000486 -16.803130  -8.536570  14.020420   9.568380  -1.770433  -4.758732  25.923132   0.003673   0.003136 -21.359955  -2.006949   2.278862 -10.632911   0.001817  -0.008003 -20.679136   3.095053   0.128245  28.789370  -0.001543  -0.001731  -5.887708  11.979916  -1.081702  -0.503239   0.000010  -0.000044
 -1.431581   0.882849   3.986526  -1.562685 -30.065271   2.390428   5.605675   3.705278  -1.830929  -3.790462   2.428566   0.483055  -0.944702   3.178015   1.623111  -2.654541  12.173212  -8.152425  -8.755258  38.470488  22.587318 179.997996  80.675036 -179.998232 -10.336639   9.654512   2.837866  -5.447849  -2.099038  10.562532 -36.865763  10.948448 -12.377609  -0.000434 -53.502407  -0.000524 -16.712247  -8.604479  14.063541   9.591295  -1.662962  -4.612474  25.437543   0.003726   0.003064 -21.479626  -1.770621   2.071440 -12.250142   0.001111  -0.007539 -20.970751   3.031744   0.389753  28.903042  -0.001442  -0.001615  -5.637749  12.083429  -1.295771  -0.365512   0.000051  -0.000217
 -1.431140   0.882145   3.981709  -1.636212 -30.378099   2.281782   5.713523   3.748649  -1.801300  -3.836581   2.442281   0.458069  -0.956096   3.225487   1.576782  -2.697610  12.275344  -8.208625  -8.713290  38.606880  22.580775 179.997999  80.614633 -179.998237 -10.328096   9.662986   2.789366  -5.516544  -1.945264  10.602258 -36.854435  11.011145 -12.297694  -0.000432 -53.619665  -0.000536 -16.625928  -8.665150  14.112591   9.602090  -1.559595  -4.474722  24.976652   0.003772   0.003067 -21.600364  -1.547053   1.877587 -13.825473   0.000621  -0.006593 -21.240524   2.949016   0.639054  29.002452  -0.001342  -0.001527  -5.396221  12.156765  -1.496191  -0.065586   0.000092  -0.000753
